<?xml version="1.0" encoding="iso-8859-1"?>
<!-- Generator: Adobe Illustrator 19.0.0, SVG Export Plug-In . SVG Version: 6.00 Build 0)  -->
<svg version="1.1" id="Capa_1" xmlns="http://www.w3.org/2000/svg" xmlns:xlink="http://www.w3.org/1999/xlink" x="0px" y="0px"
	 viewBox="0 0 450 450" style="enable-background:new 0 0 450 450;" xml:space="preserve">
<g>
	<path style="fill:#FBC566;" d="M167.435,167.435C116.058,218.811,72.63,272.23,45.152,317.85
		C13.488,370.419,6.768,406.409,25.18,424.82C31.934,431.575,41.192,435,52.698,435c0.002,0,0,0,0.001,0
		c29.393,0,70.635-23.542,100.054-43.291c41.137-27.614,86.025-65.355,129.813-109.144L167.435,167.435z"/>
	<path style="fill:#F9B233;" d="M424.821,25.18C418.067,18.425,408.808,15,397.302,15c-29.394,0-70.634,23.542-100.054,43.292
		c-41.138,27.614-86.026,65.355-129.813,109.143l115.131,115.131c51.377-51.376,94.805-104.795,122.283-150.416
		C436.513,79.581,443.233,43.591,424.821,25.18z"/>
	<path style="fill:#FA9647;" d="M424.821,25.18C418.066,18.425,408.808,15,397.303,15c-29.394,0-70.634,23.542-100.055,43.292
		c-41.137,27.614-86.025,65.355-129.813,109.143l31.82,31.82c41.162-41.162,84.869-77.954,123.071-103.598
		c30.75-20.642,53.183-30.838,66.295-34.276h25.594l15-31.807L424.821,25.18z"/>
	<path style="fill:#F9B233;" d="M167.435,167.435C116.058,218.812,72.63,272.23,45.152,317.85
		C13.488,370.419,6.768,406.409,25.18,424.821l4.394,4.393l31.799-15v-25.592c2.927-11.017,11.136-30.986,31-61.343
		c25.809-39.443,63.768-84.91,106.882-128.025L167.435,167.435z"/>
	<path style="fill:#FB7A5B;" d="M397.303,0c-26.631,0-63.108,15.423-108.419,45.84c-41.93,28.147-87.594,66.526-132.056,110.988
		l21.214,21.214c104.5-104.5,210.238-168.19,236.173-142.255h21.213V14.573C428.78,7.925,416.769,0,397.303,0z"/>
	<path style="fill:#FA9647;" d="M178.042,178.041l-21.214-21.214c-52.213,52.213-96.437,106.65-124.525,153.283
		c-14.551,24.157-24.293,45.486-28.957,63.395c-8.657,33.242,1.327,52.021,11.228,61.922h21.213v-21.214
		C9.852,388.28,73.541,282.541,178.042,178.041z"/>
	<path style="fill:#FCD999;" d="M225,67.5v315c86.985,0,157.5-70.515,157.5-157.5S311.985,67.5,225,67.5z"/>
	<path style="fill:#FEECCC;" d="M352.5,225c0-86.985-57.084-157.5-127.5-157.5c-86.985,0-157.5,70.515-157.5,157.5
		S138.015,382.5,225,382.5C295.417,382.5,352.5,311.985,352.5,225z"/>
	<path style="fill:#FD5F6E;" d="M435.427,14.573l-21.213,21.213c25.935,25.935-37.755,131.673-142.255,236.173v21.214h21.213
		c52.213-52.213,96.438-106.65,124.525-153.283c14.551-24.157,24.293-45.486,28.957-63.395
		C455.312,43.252,445.327,24.473,435.427,14.573z"/>
	<path style="fill:#FB7A5B;" d="M271.959,271.959c-104.5,104.5-210.238,168.19-236.173,142.256l-21.213,21.213
		C21.221,442.076,33.232,450,52.698,450c26.631,0,63.108-15.422,108.419-45.84c41.929-28.147,87.593-66.526,132.055-110.988
		L271.959,271.959z"/>
	<path style="fill:#FA9647;" d="M414.214,35.786l-25.587,25.592c-2.927,11.017-11.136,30.986-30.999,61.343
		c-25.81,39.444-63.768,84.911-106.882,128.025v21.213h21.213C376.459,167.459,440.149,61.72,414.214,35.786z"/>
	<path style="fill:#FA9647;" d="M250.746,250.746c-41.162,41.162-84.87,77.954-123.071,103.598
		c-30.75,20.642-53.183,30.838-66.295,34.276l-25.594,25.594c25.935,25.935,131.673-37.755,236.173-142.255L250.746,250.746z"/>
	<circle style="fill:#FCD999;" cx="105" cy="225" r="7.5"/>
	<circle style="fill:#FCD999;" cx="135" cy="195" r="7.5"/>
</g>
<g>
</g>
<g>
</g>
<g>
</g>
<g>
</g>
<g>
</g>
<g>
</g>
<g>
</g>
<g>
</g>
<g>
</g>
<g>
</g>
<g>
</g>
<g>
</g>
<g>
</g>
<g>
</g>
<g>
</g>
</svg>
